<svg width="16" height="16" viewBox="0 0 16 16" fill="none" xmlns="http://www.w3.org/2000/svg">
<path fill-rule="evenodd" clip-rule="evenodd" d="M1.14472 2.04966C0.348129 2.23223 -0.153207 3.0014 0.0479025 3.73247C0.109304 3.95569 0.224545 4.1551 0.381564 4.30981C0.52174 4.44794 7.17772 8.66155 7.42129 8.76637C7.79261 8.92614 8.23507 8.92031 8.61404 8.75061C8.91136 8.61747 15.4319 4.48569 15.5975 4.32549C16.3758 3.57259 15.951 2.29631 14.8397 2.0483C14.5472 1.98303 1.42979 1.98433 1.14472 2.04966ZM0 9.27239C0 11.6685 0.0104992 12.768 0.0344348 12.8769C0.148926 13.3985 0.594828 13.8238 1.15907 13.9497C1.45342 14.0154 14.4928 14.0174 14.8198 13.9518C15.3885 13.8377 15.8482 13.406 15.9643 12.8769C16.004 12.6964 16.0147 5.81795 15.9753 5.83452C15.9624 5.83994 14.4513 6.79257 12.6173 7.95147C10.7832 9.11038 9.18216 10.1065 9.05929 10.1651C8.71388 10.3298 8.42103 10.3927 7.99937 10.3927C7.57772 10.3927 7.28487 10.3298 6.93946 10.1651C6.81659 10.1065 5.2155 9.11038 3.38145 7.95147C1.54744 6.79257 0.0363409 5.83994 0.0234357 5.83452C0.0105304 5.82908 0 7.37615 0 9.27239Z" fill="#FFCC29"/>
</svg>
