<svg width="16" height="16" viewBox="0 0 16 16" fill="none" xmlns="http://www.w3.org/2000/svg">
<path fill-rule="evenodd" clip-rule="evenodd" d="M7.59041 0.00706467C6.89802 0.0864711 6.507 0.167692 6.07714 0.321405C4.04303 1.0487 2.62081 2.78867 2.28255 4.96371C2.22043 5.36306 2.22805 6.28634 2.29656 6.66886C2.41812 7.34728 2.66131 8.05872 2.97036 8.63994C3.0527 8.79481 3.97136 10.3998 5.0118 12.2067C7.06207 15.7671 7.00678 15.6818 7.38476 15.8672C7.89356 16.1168 8.56426 16.0059 8.95999 15.6067C9.07051 15.4952 9.56464 14.6625 11.0427 12.0972C12.1086 10.2473 13.0437 8.60709 13.1209 8.45222C13.7671 7.1554 13.9287 5.71225 13.5818 4.33797C13.3295 3.33873 12.8168 2.44185 12.0695 1.69253C11.1876 0.8082 10.1023 0.253294 8.88526 0.0644764C8.59983 0.0202052 7.78925 -0.0157436 7.59041 0.00706467ZM8.6276 3.36313C9.21821 3.57404 9.64792 3.95058 9.89834 4.47676C10.029 4.7513 10.0918 5.05347 10.0904 5.40173C10.0868 6.3277 9.48929 7.11629 8.57325 7.40394C8.29266 7.49205 7.79431 7.5019 7.4968 7.42525C6.75274 7.23349 6.15368 6.64179 5.96619 5.9134C5.68254 4.81144 6.29948 3.70241 7.3876 3.35825C7.62672 3.28263 7.67222 3.27803 8.07403 3.28898C8.35175 3.29652 8.49472 3.3157 8.6276 3.36313Z" fill="#FFCC29"/>
</svg>
