<svg width="20" height="20" viewBox="0 0 20 20" fill="none" xmlns="http://www.w3.org/2000/svg">
<path fill-rule="evenodd" clip-rule="evenodd" d="M1.4309 2.56207C0.435161 2.79029 -0.191508 3.75175 0.0598781 4.66559C0.13663 4.94462 0.280681 5.19388 0.476955 5.38726C0.652176 5.55993 8.97215 10.8269 9.27662 10.958C9.74076 11.1577 10.2938 11.1504 10.7676 10.9383C11.1392 10.7718 19.2899 5.60712 19.4969 5.40686C20.4697 4.46573 19.9388 2.87039 18.5496 2.56037C18.184 2.47879 1.78724 2.48041 1.4309 2.56207ZM0 11.5905C0 14.5856 0.013124 15.96 0.0430435 16.0962C0.186157 16.7481 0.743536 17.2797 1.44883 17.4371C1.81677 17.5193 18.116 17.5217 18.5247 17.4398C19.2356 17.2971 19.8102 16.7575 19.9554 16.0962C20.005 15.8706 20.0184 7.27244 19.9691 7.29315C19.953 7.29992 18.0641 8.49071 15.7716 9.93934C13.4791 11.388 11.4777 12.6331 11.3241 12.7064C10.8924 12.9122 10.5263 12.9908 9.99922 12.9908C9.47215 12.9908 9.10608 12.9122 8.67432 12.7064C8.52074 12.6331 6.51937 11.388 4.22682 9.93934C1.9343 8.49071 0.0454261 7.29992 0.0292946 7.29315C0.013163 7.28635 0 9.22019 0 11.5905Z" fill="#FFCC29"/>
</svg>
