<svg width="20" height="20" viewBox="0 0 20 20" fill="none" xmlns="http://www.w3.org/2000/svg">
<path fill-rule="evenodd" clip-rule="evenodd" d="M9.4885 0.00883084C8.62301 0.108089 8.13424 0.209615 7.59691 0.401757C5.05428 1.31088 3.2765 3.48584 2.85368 6.20464C2.77603 6.70382 2.78555 7.85793 2.87119 8.33607C3.02314 9.1841 3.32712 10.0734 3.71344 10.7999C3.81636 10.9935 4.96469 12.9998 6.26524 15.2583C8.82808 19.7088 8.75897 19.6023 9.23144 19.834C9.86744 20.1461 10.7058 20.0074 11.2005 19.5084C11.3386 19.369 11.9563 18.3282 13.8039 15.1214C15.1362 12.8091 16.3051 10.7589 16.4016 10.5653C17.2093 8.94425 17.4114 7.14032 16.9777 5.42246C16.6623 4.17341 16.0215 3.05232 15.0873 2.11566C13.985 1.01025 12.6284 0.316617 11.1071 0.0805955C10.7503 0.0252565 9.73705 -0.0196795 9.4885 0.00883084ZM10.785 4.20391C11.5233 4.46755 12.0604 4.93822 12.3734 5.59595C12.5368 5.93913 12.6152 6.31684 12.6135 6.75216C12.609 7.90963 11.8621 8.89536 10.717 9.25493C10.3663 9.36506 9.74337 9.37738 9.37149 9.28156C8.44142 9.04187 7.69258 8.30224 7.45822 7.39175C7.10366 6.0143 7.87484 4.62801 9.23498 4.19781C9.53389 4.10329 9.59076 4.09754 10.093 4.11123C10.4402 4.12065 10.6189 4.14462 10.785 4.20391Z" fill="#FFCC29"/>
</svg>
